<?xml version="1.0" encoding="UTF-8" standalone="no"?>
<svg width="790px" height="892px" viewBox="0 0 790 892" version="1.1" xmlns="http://www.w3.org/2000/svg" xmlns:xlink="http://www.w3.org/1999/xlink" xmlns:sketch="http://www.bohemiancoding.com/sketch/ns">
    <title>Slice 1</title>
    <description>Created with Sketch (http://www.bohemiancoding.com/sketch)</description>
    <defs></defs>
    <g id="Page-1" stroke="none" stroke-width="1" fill="none" fill-rule="evenodd" sketch:type="MSPage">
        <g id="Group" sketch:type="MSLayerGroup" transform="translate(395.617188, 331.499238) rotate(-1.000000) translate(-395.617188, -331.499238) translate(184.117188, 15.999238)" stroke="#FFFFFF" stroke-width="19" stroke-linecap="round">
            <path d="M36.2487179,4.02884615 L211.988889,314.10241" id="Line" sketch:type="MSShapeGroup"></path>
            <path d="M102.60193,3.40426463 L296.075941,355.95456" id="Line" sketch:type="MSShapeGroup"></path>
            <path d="M134.012747,282.967687 L305.601262,627.325437" id="Line" sketch:type="MSShapeGroup"></path>
            <path d="M216.020432,323.689346 L239.702521,368.987623 L376.129931,629.941231" id="Line" sketch:type="MSShapeGroup"></path>
            <path d="M8.13461538,415.867347 L414.865385,211.132653" id="Line" sketch:type="MSShapeGroup" transform="translate(211.500000, 313.500000) scale(-1, 1) translate(-211.500000, -313.500000) "></path>
            <path d="M8.13461538,622.867347 L414.865385,418.132653" id="Line" sketch:type="MSShapeGroup"></path>
            <path d="M8.13461538,206.867347 L414.865385,2.13265306" id="Line" sketch:type="MSShapeGroup"></path>
        </g>
        <path d="M38.953125,741.765625 L38.109375,748.726562 C44.8125335,743.007784 51.8671505,740.148438 59.2734375,740.148438 C68.0859816,740.148438 75.4218457,743.218719 81.28125,749.359375 C87.1406543,755.500031 90.0703125,763.257766 90.0703125,772.632812 C90.0703125,783.039115 86.7187835,791.804652 80.015625,798.929688 C73.3593417,806.007848 65.085987,809.546875 55.1953125,809.546875 C50.1327872,809.546875 45.9843912,808.750008 42.75,807.15625 C39.3749831,805.562492 35.7890815,802.679708 31.9921875,798.507812 L26.15625,845.898438 L10.6171875,845.898438 L23.4140625,741.765625 L38.953125,741.765625 Z M74.53125,773.265625 C74.53125,767.406221 72.8437669,762.601581 69.46875,758.851562 C66.0937331,755.054669 61.7812763,753.15625 56.53125,753.15625 C50.2499686,753.15625 45.0000211,755.453102 40.78125,760.046875 C36.5624789,764.640648 34.453125,770.289029 34.453125,776.992188 C34.453125,782.851592 36.2343572,787.562482 39.796875,791.125 C43.3593928,794.781268 47.9530969,796.609375 53.578125,796.609375 C59.4844045,796.609375 64.4531048,794.359398 68.484375,789.859375 C72.5156452,785.265602 74.53125,779.734407 74.53125,773.265625 Z M168.679688,741.765625 L163.96875,780.296875 C163.593748,783.578141 163.125003,786.437488 162.5625,788.875 C161.999997,791.312512 161.390628,793.351554 160.734375,794.992188 C159.421868,798.132828 157.218765,800.921863 154.125,803.359375 C148.874974,807.484396 141.96098,809.546875 133.382812,809.546875 C125.226522,809.546875 118.710962,807.460958 113.835938,803.289062 C108.960913,799.070291 106.523438,793.42191 106.523438,786.34375 C106.523438,785.26562 106.582031,784.000007 106.699219,782.546875 C106.816407,781.093743 106.992186,779.429697 107.226562,777.554688 L111.585938,741.765625 L127.125,741.765625 L122.554688,778.960938 C122.367187,780.554695 122.226563,781.949213 122.132812,783.144531 C122.039062,784.33985 121.992188,785.335934 121.992188,786.132812 C121.992188,793.117222 126.093709,796.609375 134.296875,796.609375 C138.750022,796.609375 142.031239,795.460949 144.140625,793.164062 C146.250011,790.867176 147.656246,786.835966 148.359375,781.070312 L153.210938,741.765625 L168.679688,741.765625 Z M229.921875,749.078125 L221.132812,757.867188 C217.007792,754.164044 213.187518,752.3125 209.671875,752.3125 C207.281238,752.3125 205.300789,752.980462 203.730469,754.316406 C202.160148,755.65235 201.375,757.304678 201.375,759.273438 C201.375,761.195322 202.031243,762.812493 203.34375,764.125 C204.656257,765.484382 207.398417,767.312489 211.570312,769.609375 C217.523467,772.937517 221.507802,775.984361 223.523438,778.75 C225.679698,781.468764 226.757812,785.007791 226.757812,789.367188 C226.757812,795.648469 224.578147,800.687481 220.21875,804.484375 C215.765603,808.234394 209.976598,810.109375 202.851562,810.109375 C193.148389,810.109375 185.109407,805.726606 178.734375,796.960938 L188.929688,789.859375 C193.101583,794.875025 197.554664,797.382812 202.289062,797.382812 C204.960951,797.382812 207.105461,796.679695 208.722656,795.273438 C210.339852,793.86718 211.148438,792.039074 211.148438,789.789062 C211.148438,787.820303 210.468757,786.226569 209.109375,785.007812 C208.453122,784.398434 207.304696,783.554693 205.664062,782.476562 C204.023429,781.398432 201.796889,780.109383 198.984375,778.609375 C194.0156,775.843736 190.570322,773.148451 188.648438,770.523438 C186.726553,767.757799 185.765625,764.382832 185.765625,760.398438 C185.765625,754.398407 187.968728,749.429707 192.375,745.492188 C196.781272,741.554668 202.382779,739.585938 209.179688,739.585938 C216.679725,739.585938 223.593718,742.749968 229.921875,749.078125 Z M270.632812,689.242188 L263.460938,747.390625 C269.695344,742.562476 276.023405,740.148438 282.445312,740.148438 C288.914095,740.148438 294.070293,741.859358 297.914062,745.28125 C301.898457,748.656267 303.890625,753.08591 303.890625,758.570312 C303.890625,759.882819 303.820313,761.371085 303.679688,763.035156 C303.539062,764.699227 303.351564,766.585927 303.117188,768.695312 L298.265625,808 L282.726562,808 L287.648438,767.851562 C287.929689,765.695302 288.070312,763.750009 288.070312,762.015625 C288.070312,756.109345 284.601597,753.15625 277.664062,753.15625 C267.726513,753.15625 261.937508,759.882745 260.296875,773.335938 L256.007812,808 L240.46875,808 L255.09375,689.242188 L270.632812,689.242188 Z M335.460938,699.4375 L355.570312,699.4375 C361.898469,699.4375 367.03123,700.117181 370.96875,701.476562 C374.812519,702.835944 378.070299,705.132796 380.742188,708.367188 C385.007834,713.476588 387.140625,719.640589 387.140625,726.859375 C387.140625,737.82818 381.86724,746.195284 371.320312,751.960938 C384.117251,755.148453 390.515625,763.163998 390.515625,776.007812 C390.515625,781.304714 389.390636,786.296852 387.140625,790.984375 C384.984364,795.625023 381.93752,799.374986 378,802.234375 C374.859359,804.531261 371.414081,806.054684 367.664062,806.804688 C365.695303,807.179689 363.328139,807.472655 360.5625,807.683594 C357.796861,807.894532 354.515644,808 350.71875,808 L322.101562,808 L335.460938,699.4375 Z M349.664062,714.414062 L345.726562,746.898438 L350.296875,746.898438 C364.078194,746.898438 370.96875,740.476627 370.96875,727.632812 C370.96875,718.820268 365.718803,714.414062 355.21875,714.414062 L349.664062,714.414062 Z M344.109375,759.765625 L340.03125,793.023438 L350.859375,793.023438 C358.921915,793.023438 364.45311,792.015635 367.453125,790 C372.046898,786.95311 374.34375,781.89066 374.34375,774.8125 C374.34375,772.140612 373.957035,769.855478 373.183594,767.957031 C372.410152,766.058584 371.203133,764.500006 369.5625,763.28125 C367.921867,762.062494 365.800794,761.171878 363.199219,760.609375 C360.597643,760.046872 357.468768,759.765625 353.8125,759.765625 L344.109375,759.765625 Z M469.054688,741.765625 L464.34375,780.296875 C463.968748,783.578141 463.500003,786.437488 462.9375,788.875 C462.374997,791.312512 461.765628,793.351554 461.109375,794.992188 C459.796868,798.132828 457.593765,800.921863 454.5,803.359375 C449.249974,807.484396 442.33598,809.546875 433.757812,809.546875 C425.601522,809.546875 419.085962,807.460958 414.210938,803.289062 C409.335913,799.070291 406.898438,793.42191 406.898438,786.34375 C406.898438,785.26562 406.957031,784.000007 407.074219,782.546875 C407.191407,781.093743 407.367186,779.429697 407.601562,777.554688 L411.960938,741.765625 L427.5,741.765625 L422.929688,778.960938 C422.742187,780.554695 422.601563,781.949213 422.507812,783.144531 C422.414062,784.33985 422.367188,785.335934 422.367188,786.132812 C422.367188,793.117222 426.468709,796.609375 434.671875,796.609375 C439.125022,796.609375 442.406239,795.460949 444.515625,793.164062 C446.625011,790.867176 448.031246,786.835966 448.734375,781.070312 L453.585938,741.765625 L469.054688,741.765625 Z M563.976562,689.242188 L549.351562,808 L533.882812,808 L534.726562,800.898438 C530.882793,804.32033 527.554702,806.640619 524.742188,807.859375 C521.976549,808.984381 518.554708,809.546875 514.476562,809.546875 C505.195266,809.546875 497.601592,806.476593 491.695312,800.335938 C485.789033,794.148407 482.835938,786.179736 482.835938,776.429688 C482.835938,766.023385 486.07028,757.375034 492.539062,750.484375 C499.007845,743.593716 507.140576,740.148438 516.9375,740.148438 C521.95315,740.148438 526.171858,741.015616 529.59375,742.75 C533.156268,744.531259 536.882793,747.554666 540.773438,751.820312 L548.4375,689.242188 L563.976562,689.242188 Z M538.382812,772 C538.382812,766.374972 536.648455,761.828142 533.179688,758.359375 C529.71092,754.890608 525.164091,753.15625 519.539062,753.15625 C513.445282,753.15625 508.40627,755.429665 504.421875,759.976562 C500.43748,764.52346 498.445312,770.26559 498.445312,777.203125 C498.445312,783.062529 500.156233,787.77342 503.578125,791.335938 C507.000017,794.85158 511.546847,796.609375 517.21875,796.609375 C523.12503,796.609375 528.117167,794.218774 532.195312,789.4375 C536.320333,784.749977 538.382812,778.937535 538.382812,772 Z M646.945312,741.765625 L638.789062,808.492188 C638.273435,812.476582 637.699222,815.945298 637.066406,818.898438 C636.433591,821.851577 635.718754,824.335927 634.921875,826.351562 C633.281242,830.476583 630.843766,834.01561 627.609375,836.96875 C621.328094,842.593778 613.171925,845.40625 603.140625,845.40625 C592.781198,845.40625 584.390657,842.687527 577.96875,837.25 C574.687484,834.531236 572.390632,831.437517 571.078125,827.96875 C569.765618,824.781234 569.109375,820.304716 569.109375,814.539062 L584.15625,814.539062 C584.531252,820.773469 586.124986,825.30858 588.9375,828.144531 C591.750014,830.980483 596.109345,832.398438 602.015625,832.398438 C608.390657,832.398438 613.242171,830.699236 616.570312,827.300781 C619.898454,823.902327 622.007808,818.500037 622.898438,811.09375 L624.023438,802.023438 C617.460905,807.039088 610.570349,809.546875 603.351562,809.546875 C594.351517,809.546875 586.921904,806.476593 581.0625,800.335938 C575.203096,794.054656 572.273438,786.226609 572.273438,776.851562 C572.273438,766.304635 575.671841,757.562535 582.46875,750.625 C589.312534,743.64059 597.867136,740.148438 608.132812,740.148438 C613.054712,740.148438 617.039047,740.874993 620.085938,742.328125 C623.414079,743.734382 626.859357,746.289044 630.421875,749.992188 L631.40625,741.765625 L646.945312,741.765625 Z M629.085938,773.195312 C629.085938,767.195282 627.257831,762.367206 623.601562,758.710938 C619.945294,755.007794 615.164092,753.15625 609.257812,753.15625 C603.117157,753.15625 598.007833,755.406227 593.929688,759.90625 C589.898417,764.359397 587.882812,769.960904 587.882812,776.710938 C587.882812,782.617217 589.61717,787.445294 593.085938,791.195312 C596.60158,794.804706 601.242159,796.609375 607.007812,796.609375 C613.42972,796.609375 618.703104,794.406272 622.828125,790 C627.000021,785.546853 629.085938,779.945346 629.085938,773.195312 Z M676.757812,780.4375 C676.757812,785.312524 678.445296,789.320297 681.820312,792.460938 C685.242205,795.601578 689.601536,797.171875 694.898438,797.171875 C702.164099,797.171875 707.742168,794.453152 711.632812,789.015625 L723.234375,795.414062 C719.203105,800.85159 715.054709,804.648427 710.789062,806.804688 C706.476541,809.007824 701.08597,810.109375 694.617188,810.109375 C684.351511,810.109375 676.171905,807.085968 670.078125,801.039062 C663.984345,794.992157 660.9375,786.906301 660.9375,776.78125 C660.9375,766.187447 664.289029,757.328161 670.992188,750.203125 C677.648471,743.124965 686.062449,739.585938 696.234375,739.585938 C706.078174,739.585938 713.835909,742.773406 719.507812,749.148438 C725.273466,755.570345 728.15625,764.171821 728.15625,774.953125 C728.15625,776.078131 728.085938,777.906237 727.945312,780.4375 L676.757812,780.4375 Z M712.40625,767.921875 C710.765617,757.703074 705.117236,752.59375 695.460938,752.59375 C686.320267,752.59375 680.367201,757.703074 677.601562,767.921875 L712.40625,767.921875 Z M764.929688,756.179688 L758.53125,808 L742.992188,808 L749.390625,756.179688 L740.601562,756.179688 L742.359375,741.765625 L751.148438,741.765625 L754.945312,711.039062 L770.484375,711.039062 L766.6875,741.765625 L781.03125,741.765625 L779.273438,756.179688 L764.929688,756.179688 Z" id="pushBudget" fill="#FFFFFF" sketch:type="MSShapeGroup"></path>
    </g>
</svg>